<svg width="20" height="27" viewBox="0 0 20 27" fill="none" xmlns="http://www.w3.org/2000/svg">
<path fill-rule="evenodd" clip-rule="evenodd" d="M16.5541 1.74816L6.83114 0.38818C3.65182 -0.0565208 2.06216 -0.278871 1.03108 0.618027C0 1.51493 0 3.12006 0 6.33033V12.4205H9.18525L4.97054 7.7311L6.45803 6.39418L12.1723 12.752L12.7731 13.4205L12.1723 14.089L6.45803 20.4468L4.97054 19.1099L9.18525 14.4205H0V20.5096C0 23.7199 0 25.325 1.03108 26.2219C2.06216 27.1188 3.65182 26.8965 6.83114 26.4518L16.5541 25.0918C18.1967 24.862 19.018 24.7472 19.509 24.1827C20 23.6182 20 22.7889 20 21.1303V5.70959C20 4.05101 20 3.22173 19.509 2.65726C19.018 2.09279 18.1967 1.97791 16.5541 1.74816Z" fill="#D70E0E"/>
</svg>
