<svg width="38" height="36" viewBox="0 0 38 36" fill="none" xmlns="http://www.w3.org/2000/svg">
<ellipse cx="18.5294" cy="13.5" rx="6.17647" ry="6" fill="#5B5B5B"/>
<ellipse cx="26.25" cy="13.5" rx="4.63235" ry="4.5" fill="#5B5B5B"/>
<ellipse cx="10.8089" cy="13.5" rx="4.63235" ry="4.5" fill="#5B5B5B"/>
<path fill-rule="evenodd" clip-rule="evenodd" d="M27.1278 27H31.3183C31.9111 27 32.3652 26.4901 32.2397 25.9108C31.7889 23.8312 30.3571 19.5 26.2501 19.5C24.8819 19.5 23.8106 19.9807 22.9735 20.6987C25.3016 22.166 26.5054 24.7353 27.1278 27Z" fill="#5B5B5B"/>
<path fill-rule="evenodd" clip-rule="evenodd" d="M14.0854 20.6987C13.2483 19.9807 12.177 19.5 10.8088 19.5C6.70182 19.5 5.26999 23.8312 4.81922 25.9108C4.69364 26.4901 5.14776 27 5.74054 27H9.93106C10.5535 24.7353 11.7572 22.166 14.0854 20.6987Z" fill="#5B5B5B"/>
<path d="M18.5294 21C24.6551 21 25.9206 26.6657 26.182 29.0065C26.2432 29.5554 25.8023 30 25.25 30H11.8088C11.2566 30 10.8156 29.5554 10.8769 29.0065C11.1383 26.6657 12.4037 21 18.5294 21Z" fill="#5B5B5B"/>
</svg>
