<svg width="22" height="22" viewBox="0 0 22 22" fill="none" xmlns="http://www.w3.org/2000/svg">
<path fill-rule="evenodd" clip-rule="evenodd" d="M0.911692 7.50156C0.5 8.29722 0.5 9.20239 0.5 11.0127V16.6666C0.5 19.1807 0.5 20.4378 1.37868 21.2189C2.23108 21.9766 3.58746 21.9992 6.25 21.9999V15.3333C6.25 13.9372 7.48327 13 8.75 13H13.25C14.5167 13 15.75 13.9372 15.75 15.3333V21.9999C18.4125 21.9992 19.7689 21.9766 20.6213 21.2189C21.5 20.4378 21.5 19.1807 21.5 16.6666V11.0127C21.5 9.20239 21.5 8.29722 21.0883 7.50156C20.6766 6.70591 19.9035 6.11683 18.3571 4.93868L16.8571 3.79582C14.0621 1.66631 12.6647 0.601562 11 0.601562C9.33534 0.601562 7.93785 1.66632 5.14288 3.79582L3.64288 4.93868C2.09655 6.11683 1.32338 6.70591 0.911692 7.50156ZM13.75 21.9999V15.3333C13.75 15.2822 13.7289 15.2114 13.6463 15.1379C13.5618 15.0629 13.4246 15 13.25 15H8.75C8.57539 15 8.43817 15.0629 8.3537 15.1379C8.27107 15.2114 8.25 15.2822 8.25 15.3333V21.9999H13.75Z" fill="#5B5B5B"/>
</svg>
