<svg width="26" height="26" viewBox="0 0 26 26" fill="none" xmlns="http://www.w3.org/2000/svg">
<path d="M3.25 7.25C3.25 5.36438 3.25 4.42157 3.83579 3.83579C4.42157 3.25 5.36438 3.25 7.25 3.25H18.75C20.6356 3.25 21.5784 3.25 22.1642 3.83579C22.75 4.42157 22.75 5.36438 22.75 7.25V18.75C22.75 20.6356 22.75 21.5784 22.1642 22.1642C21.5784 22.75 20.6356 22.75 18.75 22.75H7.25C5.36438 22.75 4.42157 22.75 3.83579 22.1642C3.25 21.5784 3.25 20.6356 3.25 18.75V7.25Z" stroke="#5B5B5B" stroke-width="2"/>
<path fill-rule="evenodd" clip-rule="evenodd" d="M19.5 10.8334H13.5735C12.756 10.8334 12.3473 10.8334 11.9797 10.6811C11.6122 10.5289 11.3232 10.2399 10.7451 9.6618L9.83824 8.75495L9.83824 8.75494L9.83823 8.75494C9.26018 8.17688 8.97115 7.88786 8.60361 7.73561C8.23606 7.58337 7.82731 7.58337 7.00981 7.58337H3.25V18.75C3.25 20.6357 3.25 21.5785 3.83579 22.1643C4.42157 22.75 5.36438 22.75 7.25 22.75H18.75C20.6356 22.75 21.5784 22.75 22.1642 22.1643C22.75 21.5785 22.75 20.6357 22.75 18.75V7.58337C22.75 8.75069 22.75 9.33435 22.5138 9.77617C22.3274 10.125 22.0416 10.4107 21.6928 10.5972C21.251 10.8334 20.6673 10.8334 19.5 10.8334ZM7.58333 16.3334C7.03105 16.3334 6.58333 16.7811 6.58333 17.3334C6.58333 17.8857 7.03105 18.3334 7.58333 18.3334H16.25C16.8023 18.3334 17.25 17.8857 17.25 17.3334C17.25 16.7811 16.8023 16.3334 16.25 16.3334H7.58333Z" fill="#5B5B5B"/>
</svg>
