<svg width="32" height="31" viewBox="0 0 32 31" fill="none" xmlns="http://www.w3.org/2000/svg">
<path fill-rule="evenodd" clip-rule="evenodd" d="M16.3333 2.58337V9.62504L16.3333 9.67945V9.67946V9.67947V9.67948C16.3332 10.1035 16.3331 10.5157 16.3788 10.8556C16.4304 11.2388 16.5559 11.676 16.9191 12.0393C17.2823 12.4025 17.7196 12.528 18.1028 12.5795C18.4427 12.6252 18.8548 12.6251 19.2789 12.625H19.2789H19.2789H19.2789L19.3333 12.625H26.6666V20.6667C26.6666 24.3201 26.6666 26.1468 25.4951 27.2817C24.3235 28.4167 22.4379 28.4167 18.6666 28.4167H13.3333C9.56208 28.4167 7.67646 28.4167 6.50489 27.2817C5.33331 26.1468 5.33331 24.3201 5.33331 20.6667V10.3334C5.33331 6.67999 5.33331 4.8533 6.50489 3.71834C7.67646 2.58337 9.56208 2.58337 13.3333 2.58337H16.3333ZM18.3333 2.58455V9.62504C18.3333 10.1247 18.3354 10.3989 18.361 10.5891L18.362 10.5963L18.3693 10.5973C18.5595 10.6229 18.8336 10.625 19.3333 10.625H26.6652C26.6591 9.92367 26.6274 9.5061 26.4637 9.12316C26.2607 8.64843 25.8753 8.2751 25.1046 7.52847L25.1046 7.52844L25.1046 7.52843L21.5621 4.09666C20.7913 3.34999 20.406 2.97666 19.9159 2.78002C19.5148 2.61906 19.0768 2.58985 18.3333 2.58455ZM11 16.7917C11 16.2394 11.4477 15.7917 12 15.7917L20 15.7917C20.5523 15.7917 21 16.2394 21 16.7917C21 17.344 20.5523 17.7917 20 17.7917L12 17.7917C11.4477 17.7917 11 17.344 11 16.7917ZM12 20.9584C11.4477 20.9584 11 21.4061 11 21.9584C11 22.5107 11.4477 22.9584 12 22.9584H17.3333C17.8856 22.9584 18.3333 22.5107 18.3333 21.9584C18.3333 21.4061 17.8856 20.9584 17.3333 20.9584H12Z" fill="#5B5B5B"/>
</svg>
