<svg width="34" height="34" viewBox="0 0 34 34" fill="none" xmlns="http://www.w3.org/2000/svg">
<path fill-rule="evenodd" clip-rule="evenodd" d="M20.7086 5.17182C19.5986 4.58212 18.3346 4.25 17 4.25C12.9674 4.25 9.57974 7.28212 9.13441 11.29L8.77769 14.5005C8.6932 15.2609 8.65095 15.6412 8.57374 16.012C8.44284 16.6406 8.23674 17.2512 7.95987 17.8306C7.79655 18.1724 7.59972 18.5004 7.20607 19.1565L6.06737 21.0543C5.26161 22.3973 4.85873 23.0687 5.14596 23.576C5.43319 24.0833 6.21624 24.0833 7.78235 24.0833H26.2176C27.7837 24.0833 28.5668 24.0833 28.854 23.576C29.1412 23.0687 28.7383 22.3973 27.9326 21.0543L26.7939 19.1565C26.4002 18.5004 26.2034 18.1724 26.0401 17.8306C25.7632 17.2512 25.5571 16.6406 25.4262 16.012C25.349 15.6412 25.3067 15.2609 25.2222 14.5005L25.2028 14.3259C22.1193 14.1712 19.6666 11.622 19.6666 8.5C19.6666 7.26288 20.0517 6.11571 20.7086 5.17182ZM23.0549 7.06751C22.8081 7.48781 22.6666 7.97738 22.6666 8.5C22.6666 9.84553 23.6046 10.972 24.8623 11.2613C24.6789 9.66357 24.0278 8.22207 23.0549 7.06751Z" fill="#5B5B5B"/>
<path d="M12.75 24.0834C12.75 24.6415 12.8599 25.1941 13.0735 25.7098C13.2871 26.2254 13.6001 26.6939 13.9948 27.0886C14.3894 27.4832 14.858 27.7963 15.3736 28.0099C15.8892 28.2234 16.4419 28.3334 17 28.3334C17.5581 28.3334 18.1108 28.2234 18.6264 28.0099C19.142 27.7963 19.6106 27.4832 20.0052 27.0886C20.3999 26.6939 20.7129 26.2254 20.9265 25.7098C21.1401 25.1941 21.25 24.6415 21.25 24.0834L17 24.0834H12.75Z" fill="#5B5B5B"/>
<circle cx="25.5" cy="8.49996" r="3.33333" fill="#5B5B5B" stroke="#5B5B5B"/>
</svg>
