<svg width="29" height="30" viewBox="0 0 29 30" fill="none" xmlns="http://www.w3.org/2000/svg">
<path d="M22.9584 23.75H6.04169" stroke="#5B5B5B" stroke-width="2" stroke-linecap="round"/>
<path d="M11.2916 10H10.4583C9.35374 10 8.45831 10.8954 8.45831 12V18C8.45831 19.1046 9.35374 20 10.4583 20H11.2916C12.3962 20 13.2916 19.1046 13.2916 18V12C13.2916 10.8954 12.3962 10 11.2916 10Z" fill="#5B5B5B"/>
<path d="M18.5416 5H17.7083C16.6037 5 15.7083 5.89543 15.7083 7V18C15.7083 19.1046 16.6037 20 17.7083 20H18.5416C19.6462 20 20.5416 19.1046 20.5416 18V7C20.5416 5.89543 19.6462 5 18.5416 5Z" fill="#5B5B5B"/>
</svg>
